<svg xmlns="http://www.w3.org/2000/svg" viewBox="0 0 500.04 287.6"><defs><style>.cls-1{fill:#fff;}.cls-1,.cls-2{stroke:#000;stroke-linecap:round;stroke-linejoin:round;stroke-width:8.95px;}.cls-2{fill:#333;}</style></defs><title>Artboard 7 copy 3</title><g id="Logo"><path class="cls-1" d="M473.8,179.61a71.6,71.6,0,0,1-71.61,71.61h-157A53.06,53.06,0,0,0,259,215.41v-35.8h71.61a71.61,71.61,0,1,1,0-143.22H438A35.81,35.81,0,1,1,438,108h-35.8A71.59,71.59,0,0,1,473.8,179.61Z"/><line class="cls-2" x1="402.19" y1="179.61" x2="330.58" y2="179.61"/><line class="cls-2" x1="402.19" y1="108" x2="330.58" y2="108"/><polyline class="cls-2" points="258.97 179.61 330.58 179.61 402.19 179.61"/><line class="cls-2" x1="437.99" y1="108" x2="330.58" y2="108"/><path class="cls-1" d="M241.07,143.8v71.61a35.92,35.92,0,0,1-35.81,35.81,36.07,36.07,0,0,1-35.8-35.81V143.8a35.81,35.81,0,1,0-35.81,35.81h17.91v35.8a53.1,53.1,0,0,0,13.78,35.81H133.65A107.42,107.42,0,1,1,241.07,143.8Z"/><circle class="cls-1" cx="205.26" cy="215.41" r="17.9"/><circle class="cls-1" cx="437.99" cy="72.19" r="17.9"/></g></svg>