<svg xmlns="http://www.w3.org/2000/svg" viewBox="0 0 556.95 168.45"><defs><style>.cls-1{fill:#d0d5dd;stroke:#122b53;stroke-miterlimit:10;stroke-width:21.76px;}.cls-2{fill:#fff;}.cls-2,.cls-3{stroke:#000;stroke-linecap:round;stroke-linejoin:round;stroke-width:6.74px;}.cls-3{fill:#333;}</style></defs><title>Asset 12</title><g id="Layer_2" data-name="Layer 2"><g id="Logo"><line class="cls-1" x1="284.85" y1="84.22" x2="284.85" y2="84.22"/><path class="cls-2" d="M340.26,111.17a53.89,53.89,0,0,1-53.9,53.91H168.18a40,40,0,0,0,10.37-27v-27h53.91a53.9,53.9,0,1,1,0-107.8h80.85a26.95,26.95,0,0,1,0,53.9H286.36A53.88,53.88,0,0,1,340.26,111.17Z"/><line class="cls-3" x1="286.36" y1="111.17" x2="232.46" y2="111.17"/><line class="cls-3" x1="286.36" y1="57.27" x2="232.46" y2="57.27"/><polyline class="cls-3" points="178.55 111.17 232.46 111.17 286.36 111.17"/><line class="cls-3" x1="313.31" y1="57.27" x2="232.46" y2="57.27"/><path class="cls-2" d="M165.08,84.22v53.91a27,27,0,0,1-27,27,27.16,27.16,0,0,1-27-27V84.22a27,27,0,1,0-26.95,27H97.7v27a40,40,0,0,0,10.38,27H84.22a80.86,80.86,0,1,1,80.86-80.86Z"/><circle class="cls-2" cx="138.13" cy="138.13" r="13.48"/><circle class="cls-2" cx="313.31" cy="30.32" r="13.48"/><path d="M397.7,16.46a12.47,12.47,0,0,1,4.6,4.66A12.88,12.88,0,0,1,404,27.7V38.08a2.29,2.29,0,0,1-.67,1.7,2.47,2.47,0,0,1-3.4,0,2.29,2.29,0,0,1-.67-1.7V36.36a11.47,11.47,0,0,1-9,4.24,11.32,11.32,0,0,1-6.07-1.68,11.74,11.74,0,0,1-4.28-4.63,13.9,13.9,0,0,1-1.56-6.59A13.16,13.16,0,0,1,380,21.12a12.26,12.26,0,0,1,4.63-4.66,12.91,12.91,0,0,1,6.54-1.7A12.69,12.69,0,0,1,397.7,16.46Zm-2.28,18.81a8.05,8.05,0,0,0,2.95-3.12,9.12,9.12,0,0,0,1.07-4.45,9.29,9.29,0,0,0-1.07-4.47A8.21,8.21,0,0,0,387,20.09a8.19,8.19,0,0,0-3,3.14,9.19,9.19,0,0,0-1.09,4.47A9,9,0,0,0,384,32.15a8.2,8.2,0,0,0,3,3.12,8.36,8.36,0,0,0,8.43,0Z"/><path d="M431.6,4.71a2.31,2.31,0,0,1,.66,1.72V27.66a13,13,0,0,1-1.7,6.58,12.55,12.55,0,0,1-11.1,6.36,12.91,12.91,0,0,1-6.54-1.7,12.26,12.26,0,0,1-4.63-4.66,13.07,13.07,0,0,1-1.68-6.58,13.9,13.9,0,0,1,1.56-6.59,11.81,11.81,0,0,1,4.28-4.63,11.35,11.35,0,0,1,6.08-1.68,11.53,11.53,0,0,1,5,1.12,11.35,11.35,0,0,1,4,3.12V6.43a2.27,2.27,0,0,1,.67-1.72,2.33,2.33,0,0,1,1.7-.65A2.28,2.28,0,0,1,431.6,4.71Zm-7.93,30.56a7.93,7.93,0,0,0,2.95-3.15,9.22,9.22,0,0,0,1.08-4.46,9.13,9.13,0,0,0-1.08-4.45,8.22,8.22,0,0,0-11.38-3.12,8.28,8.28,0,0,0-3,3.12,9.14,9.14,0,0,0-1.09,4.45,9.23,9.23,0,0,0,1.09,4.46,8.22,8.22,0,0,0,3,3.15,8.36,8.36,0,0,0,8.43,0Z"/><path d="M455.51,16.46a12.47,12.47,0,0,1,4.6,4.66,12.88,12.88,0,0,1,1.7,6.58V38.08a2.29,2.29,0,0,1-.67,1.7,2.47,2.47,0,0,1-3.4,0,2.29,2.29,0,0,1-.67-1.7V36.36a11.47,11.47,0,0,1-9,4.24A11.32,11.32,0,0,1,442,38.92a11.67,11.67,0,0,1-4.28-4.63,13.9,13.9,0,0,1-1.56-6.59,13.06,13.06,0,0,1,1.67-6.58,12.26,12.26,0,0,1,4.63-4.66,12.91,12.91,0,0,1,6.54-1.7A12.69,12.69,0,0,1,455.51,16.46Zm-2.28,18.81a8.05,8.05,0,0,0,2.95-3.12,9.24,9.24,0,0,0,1.07-4.45,9.4,9.4,0,0,0-1.07-4.47,8.21,8.21,0,0,0-11.38-3.14,8.19,8.19,0,0,0-3,3.14,9.19,9.19,0,0,0-1.09,4.47,9,9,0,0,0,1.09,4.45,8.2,8.2,0,0,0,3,3.12,8.36,8.36,0,0,0,8.43,0Z"/><path d="M499,17.37q2.49,2.65,2.49,7.4V38.08a2.36,2.36,0,0,1-.65,1.7,2.39,2.39,0,0,1-4.1-1.7V24.77a6,6,0,0,0-1.42-4.31A5.06,5.06,0,0,0,491.56,19a5.21,5.21,0,0,0-4,1.67A6.06,6.06,0,0,0,486,25V38.08a2.36,2.36,0,0,1-.65,1.7,2.39,2.39,0,0,1-4.1-1.7V24.77a6,6,0,0,0-1.42-4.31A5.06,5.06,0,0,0,476.06,19a5.27,5.27,0,0,0-4,1.67A6.06,6.06,0,0,0,470.47,25V38.08a2.36,2.36,0,0,1-.65,1.7,2.39,2.39,0,0,1-4.1-1.7V17.37a2.28,2.28,0,0,1,.68-1.72,2.37,2.37,0,0,1,4.07,1.63,8.53,8.53,0,0,1,2.89-1.89,9.57,9.57,0,0,1,3.63-.67,9.27,9.27,0,0,1,4.26.95,8.25,8.25,0,0,1,3.09,2.72,9.94,9.94,0,0,1,3.49-2.7,10.92,10.92,0,0,1,4.66-1A8.55,8.55,0,0,1,499,17.37Z"/><path d="M394,72.55a9.2,9.2,0,0,1,3.79,2.7,2.34,2.34,0,0,1,.61,1.49,1.87,1.87,0,0,1-.79,1.44,2.16,2.16,0,0,1-1.31.38,3.18,3.18,0,0,1-2.18-.89,7,7,0,0,0-2.47-1.51,9.82,9.82,0,0,0-3.17-.44,7.53,7.53,0,0,0-3.51.72,2.2,2.2,0,0,0-1.37,2,2.55,2.55,0,0,0,.46,1.56,4.15,4.15,0,0,0,1.77,1.17,23.34,23.34,0,0,0,3.77,1c3.38.69,5.78,1.63,7.19,2.84a5.91,5.91,0,0,1,2.12,4.7,6.89,6.89,0,0,1-1.16,3.89,7.82,7.82,0,0,1-3.43,2.75,13.41,13.41,0,0,1-5.42,1,18,18,0,0,1-6-1,11.29,11.29,0,0,1-4.37-2.56,2,2,0,0,1-.61-1.44,2.16,2.16,0,0,1,.94-1.82,2.82,2.82,0,0,1,1.62-.65,2.48,2.48,0,0,1,1.77.84A7.23,7.23,0,0,0,385,92.5a9.88,9.88,0,0,0,3.77.72,8,8,0,0,0,4.12-.89A2.68,2.68,0,0,0,394.32,90a2.82,2.82,0,0,0-1.44-2.4A14.21,14.21,0,0,0,388,86q-8.94-1.72-8.94-7.36a5.73,5.73,0,0,1,1.35-3.86,8.09,8.09,0,0,1,3.54-2.37,13.54,13.54,0,0,1,4.66-.8A14.3,14.3,0,0,1,394,72.55Z"/><path d="M406.77,62.38a3,3,0,0,1,0,4.33,2.92,2.92,0,0,1-2.16.91,3.07,3.07,0,0,1-2.17-5.24,3,3,0,0,1,2.17-.91A3,3,0,0,1,406.77,62.38Zm-3.86,10a2.37,2.37,0,0,1,1.7-.65A2.23,2.23,0,0,1,407,74.13V94.85a2.37,2.37,0,0,1-.65,1.7,2.27,2.27,0,0,1-1.72.67,2.31,2.31,0,0,1-2.38-2.37V74.13A2.3,2.3,0,0,1,402.91,72.41Z"/><path d="M446,74.18a10.4,10.4,0,0,1,2.5,7.4V94.89a2.32,2.32,0,0,1-.66,1.7,2.28,2.28,0,0,1-1.72.68,2.31,2.31,0,0,1-1.7-.68,2.29,2.29,0,0,1-.67-1.7V81.58a6,6,0,0,0-1.42-4.3,5,5,0,0,0-3.8-1.47,5.2,5.2,0,0,0-4,1.68A6,6,0,0,0,433,81.77V94.89a2.32,2.32,0,0,1-.66,1.7,2.28,2.28,0,0,1-1.72.68,2.31,2.31,0,0,1-1.7-.68,2.29,2.29,0,0,1-.67-1.7V81.58a6,6,0,0,0-1.42-4.3,5,5,0,0,0-3.8-1.47,5.24,5.24,0,0,0-4,1.68,6,6,0,0,0-1.56,4.28V94.89a2.36,2.36,0,0,1-.65,1.7,2.39,2.39,0,0,1-4.1-1.7V74.18a2.28,2.28,0,0,1,.68-1.72,2.54,2.54,0,0,1,3.37,0,2.35,2.35,0,0,1,.7,1.65,8.48,8.48,0,0,1,2.88-1.89,9.64,9.64,0,0,1,3.63-.67,9.34,9.34,0,0,1,4.26,1,8.29,8.29,0,0,1,3.1,2.72,9.71,9.71,0,0,1,3.49-2.69,10.76,10.76,0,0,1,4.65-1A8.53,8.53,0,0,1,446,74.18Z"/><path d="M472.5,73.27a12.4,12.4,0,0,1,4.63,4.66,13.16,13.16,0,0,1,1.67,6.58,13.9,13.9,0,0,1-1.56,6.59A11.74,11.74,0,0,1,473,95.73a11.61,11.61,0,0,1-15.06-2.56v12.57a2.23,2.23,0,0,1-2.37,2.37,2.33,2.33,0,0,1-1.7-.65,2.27,2.27,0,0,1-.67-1.72V84.51a13,13,0,0,1,1.69-6.58A12.55,12.55,0,0,1,466,71.57,13,13,0,0,1,472.5,73.27Zm-2.33,18.81a8.28,8.28,0,0,0,3-3.12,9,9,0,0,0,1.09-4.45,9.12,9.12,0,0,0-1.09-4.46,8.22,8.22,0,0,0-3-3.15,8.09,8.09,0,0,0-11.38,3.15,9.22,9.22,0,0,0-1.07,4.46A9.12,9.12,0,0,0,458.79,89a8.22,8.22,0,0,0,11.38,3.12Z"/><path d="M497.07,72.55a9.2,9.2,0,0,1,3.79,2.7,2.34,2.34,0,0,1,.61,1.49,1.84,1.84,0,0,1-.79,1.44,2.15,2.15,0,0,1-1.3.38,3.18,3.18,0,0,1-2.19-.89,7,7,0,0,0-2.47-1.51,9.75,9.75,0,0,0-3.16-.44,7.57,7.57,0,0,0-3.52.72,2.22,2.22,0,0,0-1.37,2,2.55,2.55,0,0,0,.46,1.56,4.15,4.15,0,0,0,1.77,1.17,23.34,23.34,0,0,0,3.77,1c3.38.69,5.78,1.63,7.19,2.84a5.88,5.88,0,0,1,2.12,4.7,6.89,6.89,0,0,1-1.16,3.89,7.85,7.85,0,0,1-3.42,2.75,13.5,13.5,0,0,1-5.43,1,17.9,17.9,0,0,1-6-1,11.33,11.33,0,0,1-4.38-2.56,2,2,0,0,1-.6-1.44,2.18,2.18,0,0,1,.93-1.82A2.84,2.84,0,0,1,483.6,90a2.5,2.5,0,0,1,1.77.84A7.1,7.1,0,0,0,488,92.5a9.88,9.88,0,0,0,3.77.72,8,8,0,0,0,4.12-.89A2.68,2.68,0,0,0,497.37,90a2.82,2.82,0,0,0-1.44-2.4A14.21,14.21,0,0,0,491,86q-8.93-1.72-8.93-7.36a5.73,5.73,0,0,1,1.35-3.86A8.12,8.12,0,0,1,487,72.37a13.54,13.54,0,0,1,4.66-.8A14.27,14.27,0,0,1,497.07,72.55Z"/><path d="M523,73.23a11.88,11.88,0,0,1,4.56,4.58,14.39,14.39,0,0,1,0,13.36A11.69,11.69,0,0,1,523,95.75a14.13,14.13,0,0,1-13.29,0,11.55,11.55,0,0,1-4.56-4.58,14.5,14.5,0,0,1,0-13.36,11.61,11.61,0,0,1,4.56-4.58,13.31,13.31,0,0,1,6.65-1.66A13.11,13.11,0,0,1,523,73.23Zm-10.84,3.65a7.87,7.87,0,0,0-3,3.12,9.45,9.45,0,0,0-1.07,4.51,9.35,9.35,0,0,0,1.07,4.5,7.79,7.79,0,0,0,3,3.09,8.64,8.64,0,0,0,8.51,0A7.68,7.68,0,0,0,523.56,89a9.57,9.57,0,0,0,1-4.5,9.67,9.67,0,0,0-1-4.51,7.76,7.76,0,0,0-2.94-3.12,8.64,8.64,0,0,0-8.51,0Z"/><path d="M551.51,72.92a9.9,9.9,0,0,1,4,4.08A13.41,13.41,0,0,1,557,83.44V94.89a2.29,2.29,0,0,1-.67,1.7,2.38,2.38,0,0,1-4.08-1.7V83.44a6.86,6.86,0,0,0-7.4-7.63,7.92,7.92,0,0,0-3.56.79,6.29,6.29,0,0,0-2.51,2.14,5.27,5.27,0,0,0-.91,3V94.89a2.36,2.36,0,0,1-.65,1.7,2.39,2.39,0,0,1-4.1-1.7V74.13a2.3,2.3,0,0,1,.68-1.72,2.36,2.36,0,0,1,4.07,1.72v.52a10.3,10.3,0,0,1,3.54-2.31,11.75,11.75,0,0,1,4.37-.81A11.88,11.88,0,0,1,551.51,72.92Z"/><path d="M403.35,118.33a2.31,2.31,0,0,1,.65,1.72v21.23a13,13,0,0,1-1.69,6.59,12.54,12.54,0,0,1-4.61,4.65,12.69,12.69,0,0,1-6.5,1.7,12.85,12.85,0,0,1-6.53-1.7,12.19,12.19,0,0,1-4.64-4.65,13.2,13.2,0,0,1-1.67-6.59,13.9,13.9,0,0,1,1.56-6.59,11.74,11.74,0,0,1,4.28-4.63,11.31,11.31,0,0,1,6.07-1.67,11.42,11.42,0,0,1,9,4.23V120.05a2.29,2.29,0,0,1,.67-1.72,2.37,2.37,0,0,1,1.7-.65A2.34,2.34,0,0,1,403.35,118.33Zm-7.93,30.56a8,8,0,0,0,2.95-3.14,9.29,9.29,0,0,0,1.07-4.47,9.15,9.15,0,0,0-1.07-4.45,8.1,8.1,0,0,0-2.95-3.11,8.36,8.36,0,0,0-8.43,0,8.32,8.32,0,0,0-3,3.11,9.05,9.05,0,0,0-1.09,4.45,9.19,9.19,0,0,0,1.09,4.47,8.26,8.26,0,0,0,3,3.14,8.36,8.36,0,0,0,8.43,0Z"/><path d="M431.47,142.37a2.14,2.14,0,0,1-1.54.59H412.24a8.17,8.17,0,0,0,3,5.25,9.1,9.1,0,0,0,6,2,8.87,8.87,0,0,0,2.91-.52,8.77,8.77,0,0,0,2.49-1.25,2.42,2.42,0,0,1,1.54-.51,2,2,0,0,1,1.39.46,2,2,0,0,1,.84,1.58,1.68,1.68,0,0,1-.75,1.4,12.77,12.77,0,0,1-3.93,2.05,14.22,14.22,0,0,1-11.33-.86,12,12,0,0,1-4.73-4.59,13,13,0,0,1-1.7-6.65,13.75,13.75,0,0,1,1.61-6.68A11.6,11.6,0,0,1,414,130a12.76,12.76,0,0,1,6.49-1.65,11.66,11.66,0,0,1,6.19,1.58,10.48,10.48,0,0,1,4,4.42,14.6,14.6,0,0,1,1.39,6.52A1.93,1.93,0,0,1,431.47,142.37ZM415,134.25a8.3,8.3,0,0,0-2.68,5h15.5a8.26,8.26,0,0,0-2.33-5,6.82,6.82,0,0,0-5-1.86A8,8,0,0,0,415,134.25Z"/><path d="M449.32,129.36a9.46,9.46,0,0,1,3.79,2.7,2.4,2.4,0,0,1,.6,1.49,1.87,1.87,0,0,1-.79,1.45,2.2,2.2,0,0,1-1.3.37,3.18,3.18,0,0,1-2.19-.89A7.07,7.07,0,0,0,447,133a10.1,10.1,0,0,0-3.17-.44,7.5,7.5,0,0,0-3.51.72,2.23,2.23,0,0,0-1.38,2,2.51,2.51,0,0,0,.47,1.55,4.15,4.15,0,0,0,1.77,1.17,22.88,22.88,0,0,0,3.77,1.05q5.07,1,7.19,2.83a5.92,5.92,0,0,1,2.12,4.71,6.82,6.82,0,0,1-1.17,3.88,7.67,7.67,0,0,1-3.42,2.75,13.25,13.25,0,0,1-5.42,1,18,18,0,0,1-6-1,11.29,11.29,0,0,1-4.37-2.56,1.94,1.94,0,0,1-.61-1.44,2.18,2.18,0,0,1,.93-1.82,2.84,2.84,0,0,1,1.63-.65,2.5,2.5,0,0,1,1.77.84,7.18,7.18,0,0,0,2.65,1.7A9.92,9.92,0,0,0,444,150a8,8,0,0,0,4.12-.88,2.68,2.68,0,0,0,1.47-2.38,2.79,2.79,0,0,0-1.44-2.39,14,14,0,0,0-4.89-1.61q-8.94-1.72-8.94-7.36a5.75,5.75,0,0,1,1.35-3.86,8.27,8.27,0,0,1,3.54-2.37,13.52,13.52,0,0,1,4.65-.79A14.32,14.32,0,0,1,449.32,129.36Z"/><path d="M462.07,119.19a3,3,0,0,1,.91,2.17,3.08,3.08,0,0,1-6.15,0,3.07,3.07,0,0,1,5.24-2.17Zm-3.86,10a2.36,2.36,0,0,1,4.07,1.73v20.71a2.37,2.37,0,0,1-.65,1.7,2.52,2.52,0,0,1-3.42,0,2.31,2.31,0,0,1-.68-1.7V131A2.3,2.3,0,0,1,458.21,129.22Z"/><path d="M486.09,130a11.88,11.88,0,0,1,4.56,4.58,13.46,13.46,0,0,1,1.65,6.71v10a13.84,13.84,0,0,1-1.63,6.7,12,12,0,0,1-4.58,4.77,12.84,12.84,0,0,1-6.68,1.75,14.65,14.65,0,0,1-6.24-1.33,13,13,0,0,1-4.84-3.79,2.13,2.13,0,0,1-.51-1.3,2,2,0,0,1,1-1.68,2.41,2.41,0,0,1,1.31-.42,2.32,2.32,0,0,1,1.91,1,8.24,8.24,0,0,0,3.16,2.49,10.49,10.49,0,0,0,4.33.86,8,8,0,0,0,4.14-1.09,7.83,7.83,0,0,0,3-3.22,10.61,10.61,0,0,0,1.12-5v-2.28a10.76,10.76,0,0,1-3.82,4,10.11,10.11,0,0,1-5.35,1.44,11.68,11.68,0,0,1-6.17-1.65,11.24,11.24,0,0,1-4.23-4.59,14.26,14.26,0,0,1-1.52-6.65,13.66,13.66,0,0,1,1.63-6.71,11.74,11.74,0,0,1,4.56-4.58,13.37,13.37,0,0,1,6.66-1.65A13.13,13.13,0,0,1,486.09,130Zm-2.33,18.87a7.66,7.66,0,0,0,2.93-3.09,9.44,9.44,0,0,0,1.05-4.49,9.59,9.59,0,0,0-1.05-4.52,7.73,7.73,0,0,0-2.93-3.12,8.73,8.73,0,0,0-8.52,0,7.85,7.85,0,0,0-2.95,3.12,9.38,9.38,0,0,0-1.08,4.52,9.23,9.23,0,0,0,1.08,4.49,7.77,7.77,0,0,0,2.95,3.09,8.66,8.66,0,0,0,8.52,0Z"/><path d="M514.64,129.74a9.89,9.89,0,0,1,4,4.07,13.42,13.42,0,0,1,1.44,6.45v11.45a2.38,2.38,0,1,1-4.75,0V140.26a6.86,6.86,0,0,0-7.4-7.64,8.05,8.05,0,0,0-3.56.79,6.29,6.29,0,0,0-2.51,2.14,5.27,5.27,0,0,0-.91,3v13.13a2.33,2.33,0,0,1-.65,1.69,2.39,2.39,0,0,1-4.1-1.69V131a2.3,2.3,0,0,1,.68-1.73A2.36,2.36,0,0,1,501,131v.51a10.44,10.44,0,0,1,3.54-2.31,12.42,12.42,0,0,1,10.14.59Z"/></g></g></svg>