<svg xmlns="http://www.w3.org/2000/svg" viewBox="0 0 543.46 170.53"><defs><style>.cls-1{fill:#d0d5dd;stroke:#122b53;stroke-miterlimit:10;stroke-width:21.76px;}.cls-2{fill:#fff;}.cls-2,.cls-3{stroke:#000;stroke-linecap:round;stroke-linejoin:round;stroke-width:6.74px;}.cls-3{fill:#333;}.cls-4{font-size:46.55px;font-family:Comfortaa-Bold, Comfortaa;font-weight:700;letter-spacing:-0.07em;}</style></defs><title>Asset 11</title><g id="Layer_2" data-name="Layer 2"><g id="Logo"><line class="cls-1" x1="284.85" y1="85.26" x2="284.85" y2="85.26"/><path class="cls-2" d="M340.26,112.21a53.89,53.89,0,0,1-53.9,53.91H168.18a40,40,0,0,0,10.37-27v-27h53.91a53.9,53.9,0,1,1,0-107.8h80.85a26.95,26.95,0,0,1,0,53.9H286.36A53.88,53.88,0,0,1,340.26,112.21Z"/><line class="cls-3" x1="286.36" y1="112.21" x2="232.46" y2="112.21"/><line class="cls-3" x1="286.36" y1="58.31" x2="232.46" y2="58.31"/><polyline class="cls-3" points="178.55 112.22 232.46 112.22 286.36 112.22"/><line class="cls-3" x1="313.31" y1="58.31" x2="232.46" y2="58.31"/><path class="cls-2" d="M165.08,85.26v53.91a27,27,0,0,1-27,27,27.16,27.16,0,0,1-27-27V85.26a27,27,0,1,0-26.95,26.95H97.7v27a40,40,0,0,0,10.38,27H84.22a80.86,80.86,0,1,1,80.86-80.86Z"/><circle class="cls-2" cx="138.13" cy="139.17" r="13.48"/><circle class="cls-2" cx="313.31" cy="31.36" r="13.48"/><text class="cls-4" transform="translate(361.47 41.45)">adam</text><text class="cls-4" transform="translate(361.47 98.26)">simpson</text><text class="cls-4" transform="translate(361.47 155.07)">design</text></g></g></svg>