<svg xmlns="http://www.w3.org/2000/svg" xmlns:xlink="http://www.w3.org/1999/xlink" viewBox="0 0 689.68 556.89"><defs><style>.cls-1{fill:url(#linear-gradient);}.cls-2{fill:url(#linear-gradient-2);}.cls-3{fill:url(#linear-gradient-3);}.cls-4{fill:url(#linear-gradient-4);}.cls-5{fill:url(#linear-gradient-5);}.cls-6{fill:url(#linear-gradient-6);}.cls-7{fill:url(#linear-gradient-7);}.cls-8{fill:url(#linear-gradient-8);}.cls-9{fill:url(#linear-gradient-9);}.cls-10{fill:url(#linear-gradient-10);}.cls-11{fill:url(#linear-gradient-11);}.cls-12{fill:url(#linear-gradient-12);}.cls-13{fill:url(#linear-gradient-13);}.cls-14{fill:url(#linear-gradient-14);}.cls-15{fill:url(#linear-gradient-15);}.cls-16{fill:url(#linear-gradient-16);}.cls-17{fill:url(#linear-gradient-17);}.cls-18{fill:url(#linear-gradient-18);}.cls-19{fill:url(#linear-gradient-19);}.cls-20{fill:url(#linear-gradient-20);}.cls-21{fill:url(#linear-gradient-21);}.cls-22{fill:url(#linear-gradient-22);}.cls-23{fill:url(#linear-gradient-23);}.cls-24{fill:url(#linear-gradient-24);}.cls-25{fill:url(#linear-gradient-25);}.cls-26{fill:url(#linear-gradient-26);}.cls-27{fill:url(#linear-gradient-27);}.cls-28{fill:url(#linear-gradient-28);}.cls-29{fill:url(#linear-gradient-29);}.cls-30{fill:url(#linear-gradient-30);}.cls-31{fill:url(#linear-gradient-31);}.cls-32{fill:url(#linear-gradient-32);}.cls-33{fill:url(#linear-gradient-33);}.cls-34{fill:url(#linear-gradient-34);}.cls-35{fill:url(#linear-gradient-35);}.cls-36{fill:url(#linear-gradient-36);}.cls-37{fill:url(#linear-gradient-37);}.cls-38{fill:url(#linear-gradient-38);}.cls-39{fill:url(#linear-gradient-39);}.cls-40{fill:url(#linear-gradient-40);}.cls-41{fill:url(#linear-gradient-41);}.cls-42{fill:url(#linear-gradient-42);}.cls-43{fill:url(#linear-gradient-43);}.cls-44{fill:url(#linear-gradient-44);}.cls-45{fill:url(#linear-gradient-45);}.cls-46{fill:url(#linear-gradient-46);}.cls-47{fill:url(#linear-gradient-47);}.cls-48{fill:url(#linear-gradient-48);}.cls-49{fill:url(#linear-gradient-49);}.cls-50{fill:url(#linear-gradient-50);}.cls-51{fill:url(#linear-gradient-51);}.cls-52{fill:url(#linear-gradient-52);}.cls-53{fill:url(#linear-gradient-53);}.cls-54{fill:url(#linear-gradient-54);}.cls-55{fill:url(#linear-gradient-55);}.cls-56{fill:url(#linear-gradient-56);}.cls-57{fill:url(#linear-gradient-57);}.cls-58{fill:url(#linear-gradient-58);}.cls-59{fill:url(#linear-gradient-59);}.cls-60{fill:url(#linear-gradient-60);}.cls-61{fill:url(#linear-gradient-61);}.cls-62{fill:url(#linear-gradient-62);}</style><linearGradient id="linear-gradient" x1="126.34" y1="5.89" x2="126.34" y2="104.1" gradientUnits="userSpaceOnUse"><stop offset="0" stop-color="#4d4d4e"/><stop offset="0.09" stop-color="#434344"/><stop offset="0.47" stop-color="#1f1f1f"/><stop offset="0.78" stop-color="#080808"/><stop offset="0.98"/></linearGradient><linearGradient id="linear-gradient-2" x1="32.92" y1="0" x2="32.92" y2="134.89" xlink:href="#linear-gradient"/><linearGradient id="linear-gradient-3" x1="96.09" y1="134.89" x2="96.09" y2="227.89" gradientUnits="userSpaceOnUse"><stop offset="0.33" stop-color="#cccccb"/><stop offset="0.42" stop-color="#c0c0bf"/><stop offset="0.81" stop-color="#929292"/><stop offset="1" stop-color="gray"/></linearGradient><linearGradient id="linear-gradient-4" x1="316.84" y1="215.89" x2="316.84" y2="397.89" gradientUnits="userSpaceOnUse"><stop offset="0" stop-color="#fff"/><stop offset="0.35" stop-color="#fcfcfc"/><stop offset="0.59" stop-color="#f4f4f3"/><stop offset="0.79" stop-color="#e5e5e4"/><stop offset="0.97" stop-color="#d0d0cf"/><stop offset="1" stop-color="#cccccb"/></linearGradient><linearGradient id="linear-gradient-5" x1="310.56" y1="467.95" x2="310.56" y2="488.11" xlink:href="#linear-gradient"/><linearGradient id="linear-gradient-6" x1="183.84" y1="382.89" x2="183.84" y2="450.89" xlink:href="#linear-gradient-3"/><linearGradient id="linear-gradient-7" x1="310.56" y1="484.89" x2="310.56" y2="556.89" gradientUnits="userSpaceOnUse"><stop offset="0" stop-color="gray"/><stop offset="0.26" stop-color="#767677"/><stop offset="0.7" stop-color="#5c5c5d"/><stop offset="0.92" stop-color="#4d4d4e"/></linearGradient><linearGradient id="linear-gradient-8" x1="238.84" y1="484.89" x2="238.84" y2="539.89" xlink:href="#linear-gradient"/><linearGradient id="linear-gradient-9" x1="157.34" y1="450.89" x2="157.34" y2="518.89" xlink:href="#linear-gradient"/><linearGradient id="linear-gradient-10" x1="111.84" y1="344.89" x2="111.84" y2="451.89" xlink:href="#linear-gradient"/><linearGradient id="linear-gradient-11" x1="109.84" y1="417.39" x2="204.84" y2="417.39" xlink:href="#linear-gradient-7"/><linearGradient id="linear-gradient-12" x1="104.34" y1="227.89" x2="104.34" y2="344.89" xlink:href="#linear-gradient"/><linearGradient id="linear-gradient-13" x1="117.84" y1="187.74" x2="117.84" y2="270.89" xlink:href="#linear-gradient"/><linearGradient id="linear-gradient-14" x1="172.18" y1="104.1" x2="172.18" y2="244.89" xlink:href="#linear-gradient-3"/><linearGradient id="linear-gradient-15" x1="103.49" y1="0" x2="103.49" y2="187.74" xlink:href="#linear-gradient-4"/><linearGradient id="linear-gradient-16" x1="68.24" y1="0" x2="68.24" y2="187.74" xlink:href="#linear-gradient-7"/><linearGradient id="linear-gradient-17" x1="305.64" y1="215.89" x2="305.64" y2="397.89" xlink:href="#linear-gradient-3"/><linearGradient id="linear-gradient-18" x1="273.34" y1="254.9" x2="273.34" y2="397.89" xlink:href="#linear-gradient-7"/><linearGradient id="linear-gradient-19" x1="316.84" y1="397.89" x2="316.84" y2="459.89" xlink:href="#linear-gradient"/><linearGradient id="linear-gradient-20" x1="310.56" y1="397.89" x2="310.56" y2="484.89" xlink:href="#linear-gradient-3"/><linearGradient id="linear-gradient-21" x1="246.84" y1="382.89" x2="246.84" y2="484.89" xlink:href="#linear-gradient-4"/><linearGradient id="linear-gradient-22" x1="169.34" y1="244.89" x2="169.34" y2="329.39" xlink:href="#linear-gradient-3"/><linearGradient id="linear-gradient-23" x1="176.34" y1="298.89" x2="176.34" y2="382.89" xlink:href="#linear-gradient-4"/><linearGradient id="linear-gradient-24" x1="224.14" y1="239.72" x2="224.14" y2="300.7" xlink:href="#linear-gradient"/><linearGradient id="linear-gradient-25" x1="270.84" y1="67.45" x2="270.84" y2="215.89" xlink:href="#linear-gradient-7"/><linearGradient id="linear-gradient-26" x1="248.34" y1="298.89" x2="248.34" y2="397.89" xlink:href="#linear-gradient-3"/><linearGradient id="linear-gradient-27" x1="188.84" y1="484.89" x2="276.28" y2="484.89" xlink:href="#linear-gradient-7"/><linearGradient id="linear-gradient-28" x1="111.84" y1="329.39" x2="111.84" y2="382.89" xlink:href="#linear-gradient-7"/><linearGradient id="linear-gradient-29" x1="117.84" y1="227.89" x2="117.84" y2="329.39" xlink:href="#linear-gradient-7"/><linearGradient id="linear-gradient-30" x1="270.84" y1="104.1" x2="270.84" y2="254.9" xlink:href="#linear-gradient-4"/><linearGradient id="linear-gradient-31" x1="154.09" y1="187.74" x2="154.09" y2="270.89" xlink:href="#linear-gradient-7"/><linearGradient id="linear-gradient-32" x1="560.39" y1="5.89" x2="560.39" y2="104.1" gradientTransform="matrix(-1, 0, 0, 1, 1123.73, 0)" xlink:href="#linear-gradient"/><linearGradient id="linear-gradient-33" x1="466.97" y1="0" x2="466.97" y2="134.89" gradientTransform="matrix(-1, 0, 0, 1, 1123.73, 0)" xlink:href="#linear-gradient"/><linearGradient id="linear-gradient-34" x1="530.14" y1="134.89" x2="530.14" y2="227.89" gradientTransform="matrix(-1, 0, 0, 1, 1123.73, 0)" xlink:href="#linear-gradient-3"/><linearGradient id="linear-gradient-35" x1="750.89" y1="215.89" x2="750.89" y2="397.89" gradientTransform="matrix(-1, 0, 0, 1, 1123.73, 0)" xlink:href="#linear-gradient-4"/><linearGradient id="linear-gradient-36" x1="744.61" y1="467.95" x2="744.61" y2="488.11" gradientTransform="matrix(-1, 0, 0, 1, 1123.73, 0)" xlink:href="#linear-gradient"/><linearGradient id="linear-gradient-37" x1="617.89" y1="382.89" x2="617.89" y2="450.89" gradientTransform="matrix(-1, 0, 0, 1, 1123.73, 0)" xlink:href="#linear-gradient-3"/><linearGradient id="linear-gradient-38" x1="744.61" y1="484.89" x2="744.61" y2="556.89" gradientTransform="matrix(-1, 0, 0, 1, 1123.73, 0)" xlink:href="#linear-gradient-7"/><linearGradient id="linear-gradient-39" x1="672.89" y1="484.89" x2="672.89" y2="539.89" gradientTransform="matrix(-1, 0, 0, 1, 1123.73, 0)" xlink:href="#linear-gradient"/><linearGradient id="linear-gradient-40" x1="532.34" y1="450.89" x2="532.34" y2="518.89" xlink:href="#linear-gradient"/><linearGradient id="linear-gradient-41" x1="545.89" y1="344.89" x2="545.89" y2="451.89" gradientTransform="matrix(-1, 0, 0, 1, 1123.73, 0)" xlink:href="#linear-gradient"/><linearGradient id="linear-gradient-42" x1="484.84" y1="417.39" x2="579.84" y2="417.39" xlink:href="#linear-gradient-7"/><linearGradient id="linear-gradient-43" x1="538.39" y1="227.89" x2="538.39" y2="344.89" gradientTransform="matrix(-1, 0, 0, 1, 1123.73, 0)" xlink:href="#linear-gradient"/><linearGradient id="linear-gradient-44" x1="551.89" y1="187.74" x2="551.89" y2="270.89" gradientTransform="matrix(-1, 0, 0, 1, 1123.73, 0)" xlink:href="#linear-gradient"/><linearGradient id="linear-gradient-45" x1="606.23" y1="104.1" x2="606.23" y2="244.89" gradientTransform="matrix(-1, 0, 0, 1, 1123.73, 0)" xlink:href="#linear-gradient-3"/><linearGradient id="linear-gradient-46" x1="537.54" y1="0" x2="537.54" y2="187.74" gradientTransform="matrix(-1, 0, 0, 1, 1123.73, 0)" xlink:href="#linear-gradient-4"/><linearGradient id="linear-gradient-47" x1="502.28" y1="0" x2="502.28" y2="187.74" gradientTransform="matrix(-1, 0, 0, 1, 1123.73, 0)" xlink:href="#linear-gradient-7"/><linearGradient id="linear-gradient-48" x1="739.69" y1="215.89" x2="739.69" y2="397.89" gradientTransform="matrix(-1, 0, 0, 1, 1123.73, 0)" xlink:href="#linear-gradient-3"/><linearGradient id="linear-gradient-49" x1="707.38" y1="254.9" x2="707.38" y2="397.89" gradientTransform="matrix(-1, 0, 0, 1, 1123.73, 0)" xlink:href="#linear-gradient-7"/><linearGradient id="linear-gradient-50" x1="750.89" y1="397.89" x2="750.89" y2="459.89" gradientTransform="matrix(-1, 0, 0, 1, 1123.73, 0)" xlink:href="#linear-gradient"/><linearGradient id="linear-gradient-51" x1="744.61" y1="397.89" x2="744.61" y2="484.89" gradientTransform="matrix(-1, 0, 0, 1, 1123.73, 0)" xlink:href="#linear-gradient-3"/><linearGradient id="linear-gradient-52" x1="680.89" y1="382.89" x2="680.89" y2="484.89" gradientTransform="matrix(-1, 0, 0, 1, 1123.73, 0)" xlink:href="#linear-gradient-4"/><linearGradient id="linear-gradient-53" x1="603.39" y1="244.89" x2="603.39" y2="329.39" gradientTransform="matrix(-1, 0, 0, 1, 1123.73, 0)" xlink:href="#linear-gradient-3"/><linearGradient id="linear-gradient-54" x1="610.39" y1="298.89" x2="610.39" y2="382.89" gradientTransform="matrix(-1, 0, 0, 1, 1123.73, 0)" xlink:href="#linear-gradient-4"/><linearGradient id="linear-gradient-55" x1="658.19" y1="239.72" x2="658.19" y2="300.7" gradientTransform="matrix(-1, 0, 0, 1, 1123.73, 0)" xlink:href="#linear-gradient"/><linearGradient id="linear-gradient-56" x1="704.89" y1="67.45" x2="704.89" y2="215.89" gradientTransform="matrix(-1, 0, 0, 1, 1123.73, 0)" xlink:href="#linear-gradient-7"/><linearGradient id="linear-gradient-57" x1="682.39" y1="298.89" x2="682.39" y2="397.89" gradientTransform="matrix(-1, 0, 0, 1, 1123.73, 0)" xlink:href="#linear-gradient-3"/><linearGradient id="linear-gradient-58" x1="413.4" y1="484.89" x2="500.84" y2="484.89" xlink:href="#linear-gradient-7"/><linearGradient id="linear-gradient-59" x1="545.89" y1="329.39" x2="545.89" y2="382.89" gradientTransform="matrix(-1, 0, 0, 1, 1123.73, 0)" xlink:href="#linear-gradient-7"/><linearGradient id="linear-gradient-60" x1="551.89" y1="227.89" x2="551.89" y2="329.39" gradientTransform="matrix(-1, 0, 0, 1, 1123.73, 0)" xlink:href="#linear-gradient-7"/><linearGradient id="linear-gradient-61" x1="704.89" y1="104.1" x2="704.89" y2="254.9" gradientTransform="matrix(-1, 0, 0, 1, 1123.73, 0)" xlink:href="#linear-gradient-4"/><linearGradient id="linear-gradient-62" x1="588.14" y1="187.74" x2="588.14" y2="270.89" gradientTransform="matrix(-1, 0, 0, 1, 1123.73, 0)" xlink:href="#linear-gradient-7"/></defs><title>Asset 13</title><g id="Layer_2" data-name="Layer 2"><g id="Layer_4" data-name="Layer 4"><polygon class="cls-1" points="47.84 5.89 196.85 104.1 204.84 80.89 47.84 5.89"/><polygon class="cls-2" points="10.14 0 65.84 134.89 0 24.19 10.14 0"/><polygon class="cls-3" points="66.34 175.39 96.84 227.89 126.34 187.74 65.84 134.89 66.34 175.39"/><polygon class="cls-4" points="288.84 397.89 344.84 215.89 344.84 397.89 288.84 397.89"/><polygon class="cls-5" points="344.84 467.95 344.84 488.11 276.28 484.89 344.84 467.95"/><polygon class="cls-6" points="221.84 382.89 204.84 450.89 145.84 382.89 221.84 382.89"/><polygon class="cls-7" points="344.84 556.89 288.84 539.89 276.28 484.89 344.84 488.11 344.84 556.89"/><polygon class="cls-8" points="188.84 518.89 276.28 484.89 288.84 539.89 188.84 518.89"/><polygon class="cls-9" points="109.84 451.89 204.84 450.89 188.84 518.89 109.84 451.89"/><polygon class="cls-10" points="77.84 344.89 145.84 382.89 109.84 451.89 77.84 344.89"/><polygon class="cls-11" points="204.84 450.89 109.84 451.89 145.84 382.89 204.84 450.89"/><polygon class="cls-12" points="96.84 227.89 130.84 329.39 77.84 344.89 96.84 227.89"/><polygon class="cls-13" points="126.34 187.74 138.84 270.89 96.84 227.89 126.34 187.74"/><polygon class="cls-14" points="196.85 104.1 126.34 187.74 181.84 244.89 218.02 239.72 196.85 104.1"/><polygon class="cls-15" points="10.14 0 47.84 5.89 196.85 104.1 126.34 187.74 10.14 0"/><polygon class="cls-16" points="65.84 134.89 126.34 187.74 10.14 0 65.84 134.89"/><polygon class="cls-17" points="266.44 254.9 288.84 397.89 344.84 215.89 266.44 254.9"/><polygon class="cls-18" points="257.83 300.7 288.84 397.89 266.44 254.9 257.83 300.7"/><polygon class="cls-19" points="344.84 397.89 344.84 459.89 288.84 397.89 344.84 397.89"/><polygon class="cls-20" points="276.28 484.89 288.84 397.89 344.84 459.89 344.84 467.95 276.28 484.89"/><polygon class="cls-21" points="221.84 382.89 288.84 397.89 276.28 484.89 204.84 450.89 221.84 382.89"/><polygon class="cls-22" points="207.84 298.89 130.84 329.39 138.84 270.89 181.84 244.89 207.84 298.89"/><polygon class="cls-23" points="221.84 382.89 207.84 298.89 130.84 329.39 145.84 382.89 221.84 382.89"/><polygon class="cls-24" points="207.84 298.89 181.84 244.89 218.02 239.72 266.44 254.9 257.83 300.7 207.84 298.89"/><polygon class="cls-25" points="196.85 104.1 344.84 215.89 344.84 67.45 204.84 80.89 196.85 104.1"/><polygon class="cls-26" points="257.83 300.7 288.84 397.89 221.84 382.89 207.84 298.89 257.83 300.7"/><polygon class="cls-27" points="276.28 484.89 188.84 518.89 204.84 450.89 276.28 484.89"/><polygon class="cls-28" points="145.84 382.89 77.84 344.89 130.84 329.39 145.84 382.89"/><polygon class="cls-29" points="138.84 270.89 96.84 227.89 130.84 329.39 138.84 270.89"/><polygon class="cls-30" points="196.85 104.1 344.84 215.89 266.44 254.9 218.02 239.72 196.85 104.1"/><polygon class="cls-31" points="181.84 244.89 126.34 187.74 138.84 270.89 181.84 244.89"/><polygon class="cls-32" points="641.84 5.89 492.83 104.1 484.84 80.89 641.84 5.89"/><polygon class="cls-33" points="679.55 0 623.84 134.89 689.68 24.19 679.55 0"/><polygon class="cls-34" points="623.34 175.39 592.84 227.89 563.34 187.74 623.84 134.89 623.34 175.39"/><polygon class="cls-35" points="400.84 397.89 344.84 215.89 344.84 397.89 400.84 397.89"/><polygon class="cls-36" points="344.84 467.95 344.84 488.11 413.4 484.89 344.84 467.95"/><polygon class="cls-37" points="467.84 382.89 484.84 450.89 543.84 382.89 467.84 382.89"/><polygon class="cls-38" points="344.84 556.89 400.84 539.89 413.4 484.89 344.84 488.11 344.84 556.89"/><polygon class="cls-39" points="500.84 518.89 413.4 484.89 400.84 539.89 500.84 518.89"/><polygon class="cls-40" points="579.84 451.89 484.84 450.89 500.84 518.89 579.84 451.89"/><polygon class="cls-41" points="611.84 344.89 543.84 382.89 579.84 451.89 611.84 344.89"/><polygon class="cls-42" points="484.84 450.89 579.84 451.89 543.84 382.89 484.84 450.89"/><polygon class="cls-43" points="592.84 227.89 558.84 329.39 611.84 344.89 592.84 227.89"/><polygon class="cls-44" points="563.34 187.74 550.84 270.89 592.84 227.89 563.34 187.74"/><polygon class="cls-45" points="492.83 104.1 563.34 187.74 507.84 244.89 471.66 239.72 492.83 104.1"/><polygon class="cls-46" points="679.55 0 641.84 5.89 492.83 104.1 563.34 187.74 679.55 0"/><polygon class="cls-47" points="623.84 134.89 563.34 187.74 679.55 0 623.84 134.89"/><polygon class="cls-48" points="423.24 254.9 400.84 397.89 344.84 215.89 423.24 254.9"/><polygon class="cls-49" points="431.85 300.7 400.84 397.89 423.24 254.9 431.85 300.7"/><polygon class="cls-50" points="344.84 397.89 344.84 459.89 400.84 397.89 344.84 397.89"/><polygon class="cls-51" points="413.4 484.89 400.84 397.89 344.84 459.89 344.84 467.95 413.4 484.89"/><polygon class="cls-52" points="467.84 382.89 400.84 397.89 413.4 484.89 484.84 450.89 467.84 382.89"/><polygon class="cls-53" points="481.84 298.89 558.84 329.39 550.84 270.89 507.84 244.89 481.84 298.89"/><polygon class="cls-54" points="467.84 382.89 481.84 298.89 558.84 329.39 543.84 382.89 467.84 382.89"/><polygon class="cls-55" points="481.84 298.89 507.84 244.89 471.66 239.72 423.24 254.9 431.85 300.7 481.84 298.89"/><polygon class="cls-56" points="492.83 104.1 344.84 215.89 344.84 67.45 484.84 80.89 492.83 104.1"/><polygon class="cls-57" points="431.85 300.7 400.84 397.89 467.84 382.89 481.84 298.89 431.85 300.7"/><polygon class="cls-58" points="413.4 484.89 500.84 518.89 484.84 450.89 413.4 484.89"/><polygon class="cls-59" points="543.84 382.89 611.84 344.89 558.84 329.39 543.84 382.89"/><polygon class="cls-60" points="550.84 270.89 592.84 227.89 558.84 329.39 550.84 270.89"/><polygon class="cls-61" points="492.83 104.1 344.84 215.89 423.24 254.9 471.66 239.72 492.83 104.1"/><polygon class="cls-62" points="507.84 244.89 563.34 187.74 550.84 270.89 507.84 244.89"/></g></g></svg>