<svg xmlns="http://www.w3.org/2000/svg" viewBox="0 0 2630.64 883.45"><title>Asset 2</title><g id="Layer_2" data-name="Layer 2"><g id="Layer_6" data-name="Layer 6"><path d="M657.7,843.41c77.12,20,156.43,28.91,235.62,36,19.78,1.76,39.69,4.29,59.56,4.06,9.17-.11,18.57.12,27.69-.92,10.12-1.15,20.11-3.25,30.26-4.27,3.31-.34,4-1.16,7-2.28,3.82-1.43,8.67-1.58,12.64-2.42a134,134,0,0,0,26.81-8.85c18.18-8.11,36-16.92,53.73-26.06,17.87-9.22,36.13-17.66,53.82-27.16s35.66-18.59,53.69-27.47q12.93-6.37,25.91-12.65c9.58-4.65,19-10,29.31-12.8,8.7-2.34,17-6.61,25.73-9.24a283.93,283.93,0,0,1,28.92-7c36.39-7,75-6.15,110.37-17.95,30.47-10.17,57.94-31.86,75.41-58.77,47.68-73.47,33-164.44,15.45-245.12-.36-1.63-3.08-1.3-2.95.4a52.66,52.66,0,0,0,1.15,8.58,1.5,1.5,0,0,0,2.94-.4,42.15,42.15,0,0,0-1.14-8.58c-.35-1.66-3-1.28-2.95.4.34,12.78,2.51,34.77-14.33,38.26-20.45,4.22-20-22.89-21.85-35.42-2-13.08-8.77-25.56-14-37.58-5.88-13.51-11.64-27.5-12.09-42.44-.72-23.8,14.88-58.83,44.35-52.4,14.51,3.17,22.57,17.91,27.55,30.6,5.18,13.19,9.68,27.23,8.07,41.59-1.68,15-13.24,32.79-30.87,29.15-13.26-2.73-14.93-19.85-6-28.18s20.17,13.31,30.37,13.61c6.65.2,11-4.35,12.77-10.39,2.18-7.34,1.41-15.48.55-23a147,147,0,0,0-9.62-38.39c-4.79-11.82-12.7-21.56-18.46-32.82-4.21-8.22-5.19-15.69-3.41-24.81,1.61-8.27,3.38-16.53,5.07-24.78,7-34.34,15-68.54,26.27-101.78,2.86-8.47,6.17-16.69,9.38-25,3-7.68,5-15.25,8.78-22.67a116.53,116.53,0,0,1,13.11-20.73c5.5-6.76,12.31-11.51,19.21-16.72a1.52,1.52,0,0,0,0-2.59,39,39,0,0,0-39.17-3.64l1.82,2.35a30.53,30.53,0,0,1,42-2.54,1.51,1.51,0,0,0,2.35-1.82A48.16,48.16,0,0,0,1575.32.94v2.9C1591-.66,1607,13.49,1605,29.51c-.16,1.23,1.36,1.72,2.25,1.29C1668.8,1.49,1740.09-2.73,1806,13a310.27,310.27,0,0,1,89,36.44q10.3,6.26,20.09,13.32c6,4.31,11.6,10,18.17,13.21,15.34,7.58,28.24,24,39.36,36.73,13.28,15.19,26.07,29.9,35,48.13,4.72,9.59,9.06,18.95,11.29,29.47a143,143,0,0,1,2.7,31.72l3-.4a120.49,120.49,0,0,0-37.46-56c-1.08-.9-3-.08-2.51,1.46l14,46.53,2.74-1.16c-53.56-71.53-132.64-117.2-219.16-136.75-26.85-6.07-54.34-8.58-81.79-6.1-1.3.12-2.26,2.14-.76,2.8a74.8,74.8,0,0,0,9.69,3.73,1.51,1.51,0,0,0,1.15-2.75,24.93,24.93,0,0,0-9.68-3.72c-1.51-.24-2.86,2-1.16,2.74,25,10.59,47.78,25.36,68.7,42.62l1.81-2.36a114,114,0,0,1-11.2-7.26l-1.81,2.36a52.67,52.67,0,0,1,11.2,7.26l1.81-2.36c-31.51-16.7-64.21-33.25-100.54-34.82a1.5,1.5,0,0,0-.4,2.94,71.52,71.52,0,0,0,10.23,2c1.78.17,1.9-2.42.4-3a41.86,41.86,0,0,0-10.23-1.94c-1.7-.16-2,2.54-.4,2.94,22.47,5.59,38.27,24.48,41.27,47.25l2.79-.76c-.57-.79-1.46-2.88-2.25-3.31-.56-1.66-1.12-1.41-1.7.73a11.63,11.63,0,0,1,1.21,3.74l2.74-1.16C1703.41,114,1691,98.2,1673.33,96.31c-18.54-2-31.16,13.76-38.82,28.51-5.26,10.15-8.75,21.17-12.89,31.81-5,12.74-10.07,25.42-15.43,38-9.77,22.94-18.22,46.65-26.08,70.3-30.81,92.66-48.4,195.08-17.78,290.27,15,46.62,41.3,88.68,75.36,123.74,1.34,1.39,3.47-.73,2.12-2.12-29-29.91-52.57-64.95-67.92-103.79-16.55-41.89-23-87.1-22.44-132,.64-47.6,9.57-94.66,22.68-140.31,13-45.32,30.7-88.68,48.11-132.42,5.06-12.73,9.2-26.13,15.12-38.49,4.63-9.63,10.43-19.66,19.52-25.72,22.68-15.11,43.23,7.79,55.78,24.7a1.51,1.51,0,0,0,2.74-1.16c-.44-2.28-2.22-8.41-5.65-6.73a1.53,1.53,0,0,0-.69,1.69c.53,2.28,2.25,4.33,3.6,6.2.75,1,3,.88,2.8-.76-3.17-24.08-19.6-44.21-43.47-50.14l-.4,3a38.7,38.7,0,0,1,9.43,1.84l.4-3a63.88,63.88,0,0,1-9.43-1.84l-.4,3c35.78,1.55,68,18,99,34.41,1.43.76,3.19-1.22,1.82-2.36a56.25,56.25,0,0,0-11.81-7.72c-1.41-.67-3.26,1.23-1.82,2.35a119.84,119.84,0,0,0,11.81,7.73c1.42.86,3.16-1.25,1.82-2.36-21.12-17.41-44-32.39-69.3-43.08L1700,72.54a23.08,23.08,0,0,1,9,3.43l1.15-2.75a67.44,67.44,0,0,1-9-3.42l-.76,2.79c46.67-4.22,93.18,6.56,136.86,22.41a350.14,350.14,0,0,1,58,27.19q13.28,7.81,25.79,16.85c8.51,6.15,16.21,13.65,24.85,19.52,10,6.8,18.57,15.93,26.92,24.73a343,343,0,0,1,25.9,30.67c.94,1.26,3.27.6,2.74-1.16l-14-46.52-2.5,1.46a117.52,117.52,0,0,1,36.69,54.67,1.5,1.5,0,0,0,2.94-.39c.24-17.23-1.35-35.8-9-51.51-4-8.18-7.75-16.49-12.39-24.32-4.5-7.61-10.1-14.2-15.93-20.82-11.91-13.53-23.3-27.56-36.54-39.87q-5-4.59-10.26-8.76c-3.14-2.45-6.5-3.52-9.81-5.76-7.12-4.8-13.62-10.6-20.75-15.45C1854.8,18,1788.26-.28,1721.76,1.15a283.51,283.51,0,0,0-116,27.06l2.26,1.3c2.24-18-16.13-33.55-33.48-28.57a1.51,1.51,0,0,0,0,2.9A45.39,45.39,0,0,1,1606,30.25l2.36-1.81C1595,16.88,1574.06,17.86,1562.08,31a1.51,1.51,0,0,0,1.81,2.36A35.94,35.94,0,0,1,1600,37V34.39c-6.14,4.64-12.46,8.8-17.62,14.58A105,105,0,0,0,1569.3,67.9c-3.78,6.8-7.36,13.82-9.5,21.31-2.53,8.81-6.46,17.27-9.5,25.94-12.63,36-21.35,73.25-28.94,110.61-3.13,15.43-9,31.24-2.21,46.37,3.25,7.24,8,13.67,12.14,20.4a110.49,110.49,0,0,1,11.18,25c4.14,13.14,7.14,27.62,6.47,41.5-.24,5-1,11.76-5.68,14.69-8.58,5.4-16.13-5.36-21.45-10.43-3.16-3-6.45-5.7-11-4.41s-8.35,6-10.18,10.11c-3.46,7.75-2,17.78,4.89,23.2,8.82,6.95,22,3.34,29.81-3.29,11.47-9.68,13.61-26.1,11.79-40.19a112.69,112.69,0,0,0-14.1-40.82c-6.22-10.61-15.88-19.69-28.75-20.25-27.44-1.19-42.36,28.57-42.88,52.23-.37,16.85,5.9,32.51,12.52,47.72,4.32,9.95,9.39,20,12.31,30.46,2.54,9.09,1.33,18.77,4.08,27.79,3.5,11.47,14.55,20.5,26.68,14.82,14.85-6.95,13.06-26.39,12.7-39.84l-3,.4a37.91,37.91,0,0,1,1,7.78l3-.4a49.49,49.49,0,0,1-1-7.78l-3,.4c16,73.42,31,157.45-6,227.1-16.19,30.43-40.57,55.09-72.4,69.12-33.73,14.87-72.63,14-108.5,19.78-18,2.89-35.87,6.86-53,13.12-3.3,1.2-6.52,2.57-9.78,3.84-4.25,1.66-8.62,2.19-12.73,4.17-8.71,4.19-17.4,8.44-26.1,12.67-17.26,8.4-34.5,16.85-51.59,25.61q-12.87,6.6-25.62,13.47c-8.78,4.75-18.07,8.3-26.85,13-17.4,9.25-34.87,18.37-52.6,27s-35,17.17-54.37,21.08c-17,3.45-34.14,7.94-51.72,8.85a406.14,406.14,0,0,1-55.81-1.35c-87.69-7.52-175.69-16-261.11-38.15a1.5,1.5,0,0,0-.8,2.89Z"/><path d="M1887.67,522.91c11.16,2.77,13.68-10.6,11.8-18.62A59.19,59.19,0,0,0,1882,474.41a1.53,1.53,0,0,0-2.36.3l-4.56,6.07,2.8.76c-1.61-26-4-51.83-6.34-77.71-1-11.35-1.83-22.89-6.24-33.53a84.23,84.23,0,0,0-17.2-25.59c-14.65-15.34-34.25-25-54.18-31.6a239.39,239.39,0,0,0-34.44-8.35c-11.81-2-23.85-4.26-35.86-4.45-19.87-.31-40.21,7.57-48.12,27-.49,1.19.87,2,1.84,1.85a17.17,17.17,0,0,0,5.2-1.38,1.52,1.52,0,0,0-.36-2.75,6.83,6.83,0,0,0-6.3,1.62c-1.19,1.1.1,2.74,1.46,2.51,12.57-2.16,25.1-4,37.59-6.58,7-1.46,14.39-2.59,21.46-.73,6.13,1.6,11.73,5.31,17.48,7.9,22.05,9.91,45.63,15.78,69.92,14.55l-1.06-2.56c-1.15,1.34-2.42,2.5-3.69,3.73-2,1.91,0,.13,1.3-.35a14.22,14.22,0,0,1,3.45-.82l-1.06-2.56c-12.13,14.54-24,29.38-36.39,43.7-5.11,5.89-10.9,11.31-18.53,13.64-8.92,2.73-19.42,2.28-28.49.73-18.5-3.17-32.78-13.33-46.78-25.23-11.54-9.81-24.68-19.44-40.67-16.43l1.15,2.74c19.87-13.52,44.15-13.59,67.15-10.8,11.2,1.36,23.22,2.37,33.92,6.09,5.34,1.85,11.71,4.61,14.4,9.76,1.25,2.4,2.89,4.25,3.37,7.05a14.1,14.1,0,0,1-2.74,10.77l1.69-.69c-28.18-10.27-56.21-31.64-87.54-20.9l1.15,2.74a22.18,22.18,0,0,1,7.6-3.33l-1.15-2.74c-2.18,1.61-5.51,2.44-8,3.48l1.82,2.36c1.17-1.11,8.83-6.57,8.22-7.32.19.23-8.74,4.45-9.68,4.81l1.46,2.51a58.22,58.22,0,0,1,20.94-12.47c8.08-2.81,15.93-.65,24.13.39,4,.51,8.35,0,12,2.08,1.57.89,3.78,2.43,4.43,4.2,1.74,4.78-1.89,6.53-5.81,7.14a26.41,26.41,0,0,1-12.05-.6c-3.77-1.08-8.44-1.93-11.62-4.3-11.09-8.26,10.56-11.49,16.17-11.1,8.75.61,15.81,4.47,22.86,9.3s11.3,9.92,14.46,17.86c2,5,2.74,10.78,7.35,14.21s8.24,3,12.15-.94,6.71-9,9.84-13.54c7-10.06,14.94-21.31,27-25.53,7.07-2.49,14.91-2.32,21.16,2.16,7.24,5.2,11,14.39,17.77,20.06,11,9.14,22.5-2.26,31.43-8.41,26.68-18.37,68.54-11.33,89.8,12.43.93,1,2.47.14,2.56-1.07a3.15,3.15,0,0,0-1.57-3,1.51,1.51,0,0,0-1.82.23l-.12.12a1.57,1.57,0,0,0-.23,1.82,4.66,4.66,0,0,0,.94,1.57,1.52,1.52,0,0,0,2.74-.36,60.71,60.71,0,0,1,2.49-6.67,1.51,1.51,0,0,0-2.36-1.82c-2.87,2.23-3.43,4.55-3.07,8.09a1.5,1.5,0,0,0,2.94.4c.65-1.56,4.09-7,1.8-8.68a1.5,1.5,0,0,0-1.81.23c-1.64,1.42-3.7,6.35-2.88,8.45a1.51,1.51,0,0,0,2.89,0c8-19.65,8.34-41.43,10-62.29q2.7-34,5.42-68.07l-3,.39a356.66,356.66,0,0,1-14.34,162.86l2.51-.66c-16.17-20.36-40-36.59-66.07-40.66-9.14-1.43-19.73-.8-27.23,5.22-4.21,3.38-6,7.95-8,12.81-2.78,6.82-5.39,13.86-6,21.27-.38,5-.53,12.5,3.69,16,5.26,4.33,12.59,3.52,18.91,3.74,8.62.3,16.52,4.27,24.39,7.48,3.94,1.6,8.08,2.87,11.94,4.66,2.8,1.29,5.43,2.94,8.24,4.22,7.42,3.36,21.19,4.25,21.17-7.38,0-5.11-4.14-10-7.82-13.07-4.93-4.16-9.92-8.27-15.24-11.92-11.07-7.59-24.34-13.35-38-11-11.32,1.92-21.36,8.74-24.65,20.1a1.51,1.51,0,0,0,1,1.84c1.35.2,9.32,1.17,6.23-2.67-1.57-1.95-6-1.83-7.13.47a1.52,1.52,0,0,0,1.3,2.25c5,.5,9.82,2.11,14.79,3,4.66.85,9.3.25,14,.93,8,1.17,17.36,6.11,25.57,4.42,5-1,8.3-6.35,7.9-11.27-.53-6.42-6.45-11.43-11.77-14.17-8.88-4.56-30.71-7.07-31.5,7.76a23,23,0,0,0,7.07,17.09c5.28,5.11,11.79,6.38,18.83,7.35,14.17,2,31.2,2.81,41.73,13.86,7.3,7.65,8,19.51,8.33,29.6a146.23,146.23,0,0,1-2.89,31.3,244.15,244.15,0,0,1-19.64,60c-4.32,8.95-9.12,17.67-14.25,26.18-5.37,8.9-10.75,18.7-17.84,26.33-7.25,7.81-13.31,16.45-20.86,24-8,8-16.39,15.54-23.94,23.93-6.08,6.77-12.68,14.82-14.23,24.06-.47,2.78-.76,8,1.19,10.38s5,.52,7.05-.46a1.52,1.52,0,0,0,.31-2.36,5.18,5.18,0,0,0-8.46.89,1.52,1.52,0,0,0,1.29,2.26c2.17-.07,5.07.25,7.1-.73a1.51,1.51,0,0,0,.69-1.69c-.67-2.58-8-1.87-9.08.16a1.52,1.52,0,0,0,1.29,2.26,143.13,143.13,0,0,1,41.73,5.27,1.5,1.5,0,0,0,.8-2.89,145.84,145.84,0,0,0-42.53-5.38l1.3,2.26a19.49,19.49,0,0,0,2.37-.1,4.92,4.92,0,0,0,1.21,0c1.3-.51.6,1.43,0-.81l.69-1.69c-1.25.6-4.29.27-5.59.32l1.3,2.26a2.23,2.23,0,0,1,3.74-.29l.31-2.35c-6.27,3-3.63-8.3-2.55-11.19a48.32,48.32,0,0,1,6.6-11.41c5.25-7.1,11.77-13.34,18.09-19.48,6-5.79,12-11.48,17.64-17.61s10.11-12.82,15.84-18.76c5.51-5.71,9.56-13.56,13.76-20.28,4.49-7.17,8.75-14.48,12.71-22,8-15.12,13.94-30.93,19.11-47.21s8.53-33.59,8.75-50.64c.18-13.73-.69-29.62-12-38.93-9-7.42-21.09-9.45-32.34-11-6.26-.86-13.25-1-19.12-3.48-7.15-3.06-12.65-10.49-12.48-18.47.25-11.43,17.47-9.81,24.51-6.93,4.42,1.81,8,4.15,10.49,8.25s3.58,9.45-1.64,12.2c-4.26,2.25-11.49-.44-15.83-1.56a82.72,82.72,0,0,0-12.24-2.58c-4.82-.48-9.4,0-14.21-1.13a107.62,107.62,0,0,0-13-2.59l1.29,2.26c.41-.86,1.44.25,1.88-.06,3-2.07-2-2-2.77-2.14l1,1.84c2.81-9.71,11.12-15.57,20.71-17.65,10.72-2.32,21.45.93,30.82,6.18a101.82,101.82,0,0,1,11.84,7.93c4.7,3.58,10.26,7.41,13.68,12.27,4.51,6.41,2.45,13.72-6.33,13.27-5.56-.28-10.36-3.6-15.18-6s-10-3.94-15-6c-5.65-2.31-11.51-5.2-17.54-6.35-5.78-1.1-11.81.2-17.54-1.2-9.56-2.34-8.85-13.12-7.28-20.95a87.12,87.12,0,0,1,5.14-15.57c2.17-5.33,4.2-9.83,9.33-12.88,7.66-4.55,17.51-4.17,25.9-2.35,24.27,5.28,45.72,19.85,61.07,39.18.75.94,2.19.3,2.51-.66a360.08,360.08,0,0,0,14.33-164.45c-.25-1.78-2.82-1.17-2.94.4q-2.64,33-5.27,66.11c-1.69,21.24-1.93,43.45-10,63.46h2.89c-.42-1.08,1.25-4.8,2.11-5.54l-1.82.24c-1.8-1.31-.19-1-1.3.61-.86,1.22-1.31,3.31-1.88,4.69l3,.39c-.25-2.46.08-4.33,2.2-6l-2.36-1.82a66.52,66.52,0,0,0-2.79,7.4l2.74-.36a4.7,4.7,0,0,1-.94-1.58l-.23,1.82.11-.12-1.82.24.09.39,2.56-1.06a69.8,69.8,0,0,0-40.41-21.9c-15-2.6-33-2.62-46.55,4.93-7.33,4.08-13.5,10.07-20.91,14-11.85,6.22-20-8.63-26.37-16.28-5.1-6.13-11.58-9.76-19.73-9.42a33.83,33.83,0,0,0-18.09,6.35c-11.36,8.05-18.12,20.53-26.16,31.52a26.57,26.57,0,0,1-3.92,4.61c-2.88,2.46-5.78,1.32-8.38-1.16-3.24-3.1-4-9-5.74-13.1-2.78-6.72-6.68-12.66-12.83-16.71-7.2-4.74-13.67-9.15-22.4-10.71a36.58,36.58,0,0,0-22.66,3c-5.8,2.84-5.77,7.54-1,12a17.39,17.39,0,0,0,7.15,3.65c4.2,1.27,8.39,2.95,12.79,3.35,5.25.46,16.09-.65,16.37-7.89.27-6.95-8.07-11.18-13.88-11.63-9.27-.71-19.68-4-28.91-1.57a59.32,59.32,0,0,0-24.64,14.07c-1.06,1,0,3.05,1.46,2.51,2.5-1,14-4.57,11.91-8.64-2.4-4.65-11.51,4.37-13.37,6.13-1.34,1.26.36,3,1.81,2.35,2.44-1,5.79-1.88,8-3.48a1.51,1.51,0,0,0-1.15-2.74,24.48,24.48,0,0,0-8.32,3.63c-1.26.93-.59,3.34,1.16,2.75,30.63-10.5,58.37,10.85,86,20.9a1.53,1.53,0,0,0,1.69-.69c5.92-8.24,3.1-20.12-4.9-25.95-11.09-8.08-25.24-9.25-38.39-11.14-26-3.73-54.16-5.38-76.91,10.11a1.51,1.51,0,0,0,1.15,2.74c19.77-3.71,34.39,13.6,48.46,24.45,13.69,10.57,29.22,17.26,46.64,18.29,7.9.46,16.58.15,24-2.94,6.27-2.62,11.31-7.17,15.78-12.19,12.89-14.5,24.91-29.89,37.34-44.79.74-.88.36-2.71-1.06-2.56-2.74.29-11.78,2.51-8.85,7.14,2.57,4.08,8.28-2.67,9.91-4.58a1.52,1.52,0,0,0-1.06-2.56c-26.55,1.34-52.63-5.84-76.16-17.88-4.61-2.35-9.14-4.52-14.34-5.22-5.79-.77-11.61,0-17.31,1.11-13.13,2.54-26.25,4.69-39.43,6.95l1.46,2.51,3.37-.84-.36-2.74a14.75,14.75,0,0,1-4.47,1.07l1.84,1.85c7.53-18.5,27.55-25.28,46.2-24.77,11.73.33,23.46,2.46,35,4.47a241.71,241.71,0,0,1,31.21,7.44c19.2,6.07,38.25,15,52.82,29.2a83,83,0,0,1,18.49,26c4.59,10.55,5.37,22,6.42,33.34,2.39,25.88,4.73,51.76,6.34,77.71a1.51,1.51,0,0,0,2.79.75l4.56-6.06-2.35.3a56,56,0,0,1,13.41,18.7,55.09,55.09,0,0,1,3.49,10.7c1.12,5.43.22,16.2-8.31,14.09-1.88-.47-2.68,2.42-.8,2.89Z"/><path d="M1639.16,679.11c9.48,7.23,19.61,13.19,29.59,19.65a89.32,89.32,0,0,1,14.5,11.25,47.87,47.87,0,0,1,5.94,6.93c3,4.48,2,8.29-2.23,11.58-1.07.84-.14,2.57,1.06,2.56a29.69,29.69,0,0,0,19.71-7.32l-2.12-2.12c-5.74,6.89-9.2,19.24,2.81,21.13,12.39,2,25-5.59,32.26-15.19l-2.79-.76-1.54,25.89a1.51,1.51,0,0,0,1.9,1.45,38.79,38.79,0,0,0,13.85-7.3c3.41-2.64,9.29-9.9,13.83-8.59,7.32,2.1,7.46,14.15,10.19,20a1.5,1.5,0,0,0,1.3.74c10.74.56,16.11-9.23,18.16-18.47l-2.2.9L1823,755.91a1.52,1.52,0,0,0,2.21-.89,26,26,0,0,0-6.65-23.63l-1.46,2.51c6.57,1.83,12.58,5.08,19,7.36,4.27,1.52,13.52,4.41,17.86,1.63,2.66-1.7,2.13-6.28.82-8.6-2-3.52-6-5.41-9.19-7.6l-.76,2.8a11.06,11.06,0,0,1,4.75.29v-2.89a5.73,5.73,0,0,1-4.35-.35l-.4,3c17.26,1.3,38.62-13.43,33.67-32.7-2.3-9-9.17-15.92-17.58-19.45-9.32-3.91-18.85-3.31-28.47-1.06-14.76,3.46-29.35,9.25-44.69,9.17a84.39,84.39,0,0,1-42.51-12.29c-21.75-13-43-30.84-57.36-51.85-9.11-13.35-15.31-28.18-17-44.34-1.7-16.77.38-33.64,1.4-50.38l-2.8.76.06.67h2.89l-.15-1.43-2.26,1.3a14.48,14.48,0,0,1,6,5.39l1.69-2.21a7,7,0,0,1-5.5-4.88l-2.2,1.7a28.89,28.89,0,0,1,5.5,4.72l1.81-2.36a10.22,10.22,0,0,1-5.26-4.41l-2.35,1.81c13.72,10.85,23,25.77,34.86,38.38,11.65,12.35,26.23,21.75,41.75,28.47,8.35,3.61,17,6.5,25.49,9.66,9.15,3.4,18.2,7.13,27.6,9.8,16.66,4.73,34.82,6,51.29-.2,17.81-6.67,32.08-19.78,47.91-29.9a1.51,1.51,0,0,0,.3-2.36,7.91,7.91,0,0,0-10.9-.1l2.36.3a29.6,29.6,0,0,1-4.7-9.68,1.53,1.53,0,0,0-2.21-.89,23.52,23.52,0,0,0-7.25,5.94l2.51.67L1875.6,568a1.51,1.51,0,0,0-2.5-.67,24.34,24.34,0,0,0-5.26,8.59l2.74-.36c-3.68-7.67-13.18-13.33-20.18-6.25l2.5.66c-3.46-11-14.44-5-20.65,0l2.51.67-1.53-9.63a1.53,1.53,0,0,0-1.85-1,33.48,33.48,0,0,0-11.79,5.25l2.26,1.29c-1.17-9-13.28-12.22-18.75-5l2.75,1.16c1.33-4.63-1.52-8.71-5.87-10.4-5.8-2.25-11.37,1.2-16.07,4.31l2.2.89c-2.42-6.27-3.09-16.59-9.75-20.17-9.12-4.89-13.51,8.79-17,14.14l2.74,1.15.71-1.86-2.74-1.16-.71,1.87,2.79.75c-.28-3.9-3-6.53-6.85-7.18-4.73-.79-8.67,2.22-12.16,5l2.51.66c-1.89-4.68-2.82-11.27-7.94-13.66-5.7-2.65-11,2.24-14.15,6.52l2.59,1.52a14.57,14.57,0,0,1,1.33-2.42l-2.59-1.52a19.56,19.56,0,0,1-1.33,2.42l2.74,1.16a5.79,5.79,0,0,0-3.9-7c-4.07-1.48-7.65,1.25-10.62,3.74l2.51.66c-1-4.4-.78-11.21-5.32-13.74-5.74-3.19-13.08,2.82-16.72,6.71l2.51.66a6,6,0,0,1,1.27-6c.8-1.11-.52-2.51-1.69-2.2s-3.1,1.3-4.38,1.31c-1.76,0-3.88-1.34-5.35-2.26a53.48,53.48,0,0,1-7.15-5.78c-1.52-1.37-3.35-3.81-5.27-4.64-.81-.36-1.3,0-2.25-.21-2.28-.58-2.79-2.42-2.8-4.84,0-5.51,6.65-10.65,10.7-13.32,5.72-3.77,12.64-4.86,19.41-4.56,13.65.62,26.41,7,38.4,13,11.41,5.69,24,9.31,36.49,11.86a204.87,204.87,0,0,0,38.34,4c7.44.1,19.3,1.94,22.66-6.67,7.15-18.36-24.58-23.79-35.67-25.2s-42.72-1.93-39.19-20.09a30,30,0,0,1,9.36-16.09,47.07,47.07,0,0,1,8.19-5.63c2.25-1.35,3.21-3.94,5.69-4.86,1.45-.55,1.41-3.13-.4-2.95a29.68,29.68,0,0,0-6.49,1.18,1.51,1.51,0,0,0,.4,3,13.86,13.86,0,0,0,6.85-1.33c1.37-.61.66-2.88-.76-2.8a35.81,35.81,0,0,0-28.65,17.52c-2.74,4.75-5.9,11-5.45,16.6s3.47,8,8.12,10.32c14,7.11,29.16,10.94,44.26,14.75,7.62,1.92,15.25,3.87,22.7,6.37a25.13,25.13,0,0,1,11.17,6.92,69.22,69.22,0,0,0,7.23,7.2c1.5,1.18,3.64-.93,2.12-2.12-4.28-3.38-7.29-8.09-11.7-11.3-4.61-3.35-11-4.62-16.35-6.17-12.68-3.64-25.63-6.28-38.2-10.3a132.34,132.34,0,0,1-19.72-7.94c-3.5-1.78-6.21-3.45-6.63-7.73-.32-3.17.88-5.78,2.06-8.61,5.14-12.36,15.12-21.72,29-22.51l-.76-2.8a8.67,8.67,0,0,1-5.33.93l.4,2.94a26.71,26.71,0,0,1,5.69-1.07l-.4-3a8.44,8.44,0,0,0-3.58,2.05c-1.21,1.32-1.28,1.95-2.82,3.12-1.15.86-2.66,1.44-3.87,2.24A36.85,36.85,0,0,0,1759,460c-4.92,8.39-6,18.13,2.51,24.55,10.55,8,26.76,7.32,39.28,9.16,8.81,1.3,27.62,4.38,30.1,15.29.61,2.65-.24,6.6-2.42,8.39-1.69,1.39-5,1.48-7,1.61a180.27,180.27,0,0,1-23.7-.39,186.57,186.57,0,0,1-44.17-8.44c-14.09-4.57-26.68-12.61-40.82-17-11-3.43-25-5.09-35.31,1.36-5.88,3.68-19,15.1-11.55,22.76,2,2.06,3.3,1.11,5.76,2.35,3.1,1.56,5.8,5.38,8.59,7.53a24.45,24.45,0,0,0,7.33,4.28c2.81.87,4.74-.25,7.56-1l-1.69-2.2a9.2,9.2,0,0,0-1.57,8.3,1.52,1.52,0,0,0,2.51.66c3.08-3.3,11.8-10.6,14.93-3.84,1.36,2.94,1.39,6.42,2.09,9.54a1.51,1.51,0,0,0,2.5.67,14.76,14.76,0,0,1,2.68-2c2.1-1.61,4.38-.81,6.83,2.37a1.51,1.51,0,0,0,2.74,1.16,21.12,21.12,0,0,0,1.33-2.42,1.5,1.5,0,0,0-2.59-1.52,15.42,15.42,0,0,0-1.33,2.42,1.5,1.5,0,0,0,2.59,1.52c3.14-4.26,9.39-8.75,13.18-2.43,1.62,2.7,2.25,6,3.42,8.85a1.53,1.53,0,0,0,2.51.66,20.82,20.82,0,0,1,5.51-3.54c3-1.1,8-1,8.38,3.61a1.52,1.52,0,0,0,2.8.76,4.64,4.64,0,0,0,1-2.58,1.51,1.51,0,0,0-2.75-1.16,4.33,4.33,0,0,0-1,2.59,1.51,1.51,0,0,0,2.74,1.15c2.94-4.48,8.57-19.71,15.23-10.85,3.48,4.64,4,10.89,6.06,16.17a1.52,1.52,0,0,0,2.2.9c2.53-1.67,5.25-3.62,8.25-4.33,4.19-1,10.87,1.53,9.28,7-.5,1.75,1.78,2.44,2.75,1.16,3.58-4.75,12.38-2.46,13.15,3.46.13,1,1.21,2,2.25,1.3a31,31,0,0,1,11.08-4.94l-1.84-1,1.53,9.62c.19,1.23,1.73,1.29,2.5.66,4.22-3.44,13-9.64,15.64-1.35a1.52,1.52,0,0,0,2.51.66c5.65-5.71,12.72-.09,15.47,5.64.61,1.27,2.34.75,2.74-.35a20.47,20.47,0,0,1,4.49-7.27l-2.51-.66,3.21,9.72a1.51,1.51,0,0,0,2.51.66,22,22,0,0,1,6.65-5.47l-2.21-.9a31.89,31.89,0,0,0,5,10.4,1.54,1.54,0,0,0,2.36.3,4.66,4.66,0,0,1,6.65.11l.31-2.36c-13.45,8.59-25.63,19.27-40,26.42-16.85,8.39-35.38,8.84-53.43,4.31-8.8-2.21-17.29-5.5-25.76-8.72s-17-6.08-25.33-9.4c-16.06-6.37-31.23-15.31-43.54-27.53-13.12-13-22.61-29.25-37.24-40.82a1.51,1.51,0,0,0-2.36,1.82,12.71,12.71,0,0,0,6.34,5.49,1.51,1.51,0,0,0,1.82-2.35,31.63,31.63,0,0,0-6.11-5.19c-1.07-.79-2.56.51-2.2,1.69,1.14,3.73,3.65,6.41,7.6,7,1.14.16,2.53-1,1.69-2.21a17.65,17.65,0,0,0-7.09-6.46,1.52,1.52,0,0,0-2.25,1.29,5.39,5.39,0,0,0,.26,2.22,1.51,1.51,0,0,0,2.89,0,3,3,0,0,0-.36-3c-.73-1.4-2.71-.64-2.79.75-1.63,26.82-5.28,54.09,6.36,79.33,10,21.65,26.67,39.08,45.26,53.64,19.74,15.47,40.87,28.76,66.8,28.89,13.16.07,25.74-4.14,38.33-7.47,11.52-3.05,23.08-5.68,34.44-.56s19.61,18.39,13.54,30.57c-5.22,10.46-17.89,16.35-29.24,15.5-1.79-.14-1.88,2.4-.4,3a8.93,8.93,0,0,0,5.94.34,1.51,1.51,0,0,0,0-2.89,15.15,15.15,0,0,0-5.54-.4,1.51,1.51,0,0,0-.75,2.8c2.26,1.54,4.92,2.82,6.8,4.85s3.09,5.13-.7,6.39c-2.18.73-6.09-.18-8.08-.62-8.42-1.88-15.9-6.59-24.19-8.91a1.51,1.51,0,0,0-1.46,2.51,22.79,22.79,0,0,1,5.88,20.71l2.2-.9-29.67-14.46a1.52,1.52,0,0,0-2.2.89,30.31,30.31,0,0,1-4.06,10.38c-1.62,2.42-7.64,8.4-10.56,5.19-1.56-1.72-1.9-6.45-2.55-8.62a24.15,24.15,0,0,0-3.11-7.22c-2.43-3.45-7.45-5.84-11.38-3.77-3.45,1.81-6.48,5.37-9.52,7.81-4.26,3.43-8.72,6.34-14.06,7.75l1.9,1.44,1.54-25.89c.1-1.64-2-1.82-2.8-.75-5.45,7.23-14,12.75-23.13,13.81-4.41.51-11.65.44-11.84-5.44-.12-3.84,2.24-7.83,4.61-10.68a1.5,1.5,0,0,0-2.12-2.12,26.51,26.51,0,0,1-17.59,6.44l1.06,2.57c4.55-3.57,6.83-8.62,3.63-13.89-3.58-5.89-9-10.81-14.42-15-12-9.21-25.57-16.07-37.61-25.27-1.54-1.17-3,1.43-1.52,2.59Z"/><path d="M1912.36,713.29a442.15,442.15,0,0,1,69.49,13.08c22.71,6.2,44.43,14.79,66.34,23.3,43.65,17,89.31,27.49,135.63,34C2277.75,796.8,2374.05,798,2468.6,792a1581.34,1581.34,0,0,0,161-18.6c1.9-.31,1.1-3.2-.8-2.89a1572.81,1572.81,0,0,1-289.43,21.38c-93.13-1.75-189.49-8.44-277.76-40.37-24.54-8.87-48.37-19.31-73.5-26.52a447.25,447.25,0,0,0-75.7-14.7c-1.92-.21-1.9,2.79,0,3Z"/><path d="M1840.33,518.57c3.22,3.73,7.81,4.36,12.5,4.69,7.55.52,15.58,1.27,23.13.74,3.31-.24,6.66-1.84,6.31-5.69-.38-4.17-4.63-5.79-8.23-6s-27.46-.37-22.44,8.23c2.24,3.85,9.5,3.13,13.09,3.34a229,229,0,0,0,24.72,0c1.92-.1,1.93-3.1,0-3-7.58.38-15.17.44-22.75.07-2-.09-4-.22-5.92-.37-.8-.06-6.57-1.28-5.6-3.12.25-.45,4.73-1.06,5.23-1.15,2.21-.4,4.44-.68,6.68-.86,1.64-.13,3.77-.57,5.35-.21l1.64,0q5,6,1.29,5.73c-2.78.94-7.67-.12-10.57-.22-6.61-.22-17.53,1.21-22.31-4.33-1.26-1.47-3.38.66-2.12,2.12Z"/><path d="M1876,524.26A147.05,147.05,0,0,1,1919,564.88c1,1.47,3,3.56,3.48,5.3,1.38,5.46-4.12,6-7.58,7a148.72,148.72,0,0,1-16,3.52c-10.5,1.8-21.12,2.94-31.54,5.25-10.24,2.26-19.64,6.71-29.68,9.58-11.49,3.29-23.54,3.1-35.22,1-10.38-1.88-20.46-5.13-30.38-8.68-10.62-3.8-21.39-7.57-31.5-12.6-11-5.47-20.46-13.07-29.67-21.11-9.52-8.31-19-16.68-28.49-25l-1.06,2.56c17.63.9,31.93,13,47.72,19.53,16.43,6.77,34,10,51.38,13.43q58,11.51,116.1,22.52c1.89.36,2.7-2.53.8-2.89q-59.07-11.2-118.06-22.91c-18-3.57-36.35-7-53.15-14.66-14.72-6.73-28-17.17-44.79-18a1.51,1.51,0,0,0-1.06,2.56q14.25,12.51,28.49,25c8.67,7.57,17.58,14.93,27.8,20.32,10.5,5.53,21.81,9.51,32.94,13.53,11.63,4.21,23.48,8.08,35.75,9.91,10.76,1.6,21.77,1.55,32.31-1.33,11.57-3.16,22.29-8.23,34.14-10.58s24.11-3.45,36-6c5.51-1.2,20.81-2.85,18.08-11.77-1.37-4.47-5.51-8.87-8.33-12.53a148.27,148.27,0,0,0-40.07-36.12c-1.64-1-3.15,1.57-1.51,2.59Z"/><path d="M661.3,841.15c-25-7.11-50.72-12.13-76.72-13.8-26.48-1.7-52.61,1-78.77,4.86-27.64,4.07-55.17,7.77-83.09,9.32-27.49,1.52-55.05,1.7-82.58,1.2a1360.64,1360.64,0,0,1-166-13.08c-27.32-3.86-54.48-8.7-81.59-13.78-24.25-4.55-51.68-7.72-71.18-24.29-9.9-8.41-17.8-20.36-18.31-33.66C2.58,746.13,9,734,19.25,728c10.1-5.86,22-3.86,29,5.59,5.82,7.85,7.49,19.34,0,26.67-1.38,1.36.74,3.48,2.12,2.12,11.53-11.28,4.73-31.08-8.26-38.14-17.17-9.33-35.86,6.26-40.64,22.53-6.18,21,8.39,41.71,25.44,52.59,22.82,14.55,52.38,17.12,78.41,21.91,58.87,10.84,118.12,18.71,177.89,22.25,60,3.56,120.89,4.42,180.68-2.44,32.67-3.75,65-10.84,98-11.32,33.41-.48,66.56,5.18,98.63,14.27a1.5,1.5,0,0,0,.79-2.89Z"/></g></g></svg>